<svg width="250" height="50" viewBox="0 0 1040 236" fill="none" xmlns="http://www.w3.org/2000/svg">
<path d="M309 0H313V236H309V0Z" fill="white"/>
<path d="M81 82C93.1503 82 103 72.8218 103 61.5C103 50.1782 93.1503 41 81 41C68.8497 41 59 50.1782 59 61.5C59 72.8218 68.8497 82 81 82Z" fill="white"/>
<path d="M158.458 53.5619C160.055 51.692 162.945 51.692 164.542 53.5619L252.366 156.402C254.583 158.999 252.738 163 249.324 163H110.277C109.845 163.161 109.37 163.25 108.859 163.25H4.14054C0.723378 163.25 -1.12035 159.242 1.10316 156.647L53.4626 95.5446C55.059 93.6816 57.941 93.6816 59.5374 95.5446L91.1255 132.407L158.458 53.5619Z" fill="white"/>
<path d="M383.75 66.875H372.5V159H383.75V123.5C383.75 114.583 385.646 108.521 389.438 105.312C393.229 102.104 397.458 100.5 402.125 100.5C407.75 100.5 411.583 102.333 413.625 106C414.875 108.292 415.5 111.896 415.5 116.812V159H427.062V116.062C427.062 109.479 426.125 104.333 424.25 100.625C420.792 93.8333 414.208 90.4375 404.5 90.4375C399.083 90.4375 394.562 91.625 390.938 94C388.812 95.375 386.417 97.75 383.75 101.125V66.875Z" fill="white"/>
<path d="M455.188 92.375H443.75V159H455.188V92.375Z" fill="white"/>
<path d="M455.188 67.1875H443.75V79.9375H455.188V67.1875Z" fill="white"/>
<path d="M482.812 67.1875H472V159H482.812V133.875L492.25 125.25L513.125 159H527.5L500.438 117.125L526.062 92.0625H511.688L482.812 120.5V67.1875Z" fill="white"/>
<path fill-rule="evenodd" clip-rule="evenodd" d="M577.938 93.9375C573.479 91.6875 568.875 90.5625 564.125 90.5625C554.708 90.5625 547.083 93.9167 541.25 100.625C535.417 107.333 532.5 116.062 532.5 126.812C532.5 137.729 535.396 146.229 541.188 152.312C546.979 158.354 554.042 161.375 562.375 161.375C565.792 161.375 568.854 161.042 571.562 160.375C576.604 159.208 580.833 156.958 584.25 153.625C586.292 151.708 588.125 149.25 589.75 146.25C591.417 143.208 592.396 140.458 592.688 138H581.625C580.792 140.958 579.375 143.562 577.375 145.812C573.875 149.688 569.188 151.625 563.312 151.625C557.021 151.625 552.375 149.583 549.375 145.5C546.375 141.375 544.771 135.917 544.562 129.125H593.625C593.625 122.375 593.292 117.458 592.625 114.375C591.875 109.875 590.375 105.938 588.125 102.562C585.792 99.0208 582.396 96.1458 577.938 93.9375ZM578.875 108.5C580.542 111.417 581.604 115.312 582.062 120.188H544.875C545.083 114.438 546.938 109.708 550.438 106C553.938 102.25 558.271 100.375 563.438 100.375C570.646 100.375 575.792 103.083 578.875 108.5Z" fill="white"/>
<path d="M618.5 92.0625H607.812V159H619.062V120.5C619.062 115.75 620.583 111.562 623.625 107.938C626.667 104.271 631.021 102.438 636.688 102.438C637.354 102.438 637.958 102.458 638.5 102.5C639.083 102.542 639.708 102.625 640.375 102.75V90.875C639.167 90.75 638.312 90.6667 637.812 90.625C637.312 90.5833 636.958 90.5625 636.75 90.5625C632.292 90.5625 628.354 92.1875 624.938 95.4375C621.521 98.6458 619.375 101.375 618.5 103.625V92.0625Z" fill="white"/>
<path d="M661.375 66.875H650.125V159H661.375V123.5C661.375 114.583 663.271 108.521 667.062 105.312C670.854 102.104 675.083 100.5 679.75 100.5C685.375 100.5 689.208 102.333 691.25 106C692.5 108.292 693.125 111.896 693.125 116.812V159H704.688V116.062C704.688 109.479 703.75 104.333 701.875 100.625C698.417 93.8333 691.833 90.4375 682.125 90.4375C676.708 90.4375 672.188 91.625 668.562 94C666.438 95.375 664.042 97.75 661.375 101.125V66.875Z" fill="white"/>
<path d="M732.625 136.5V92.0625H721.125V137.562C721.125 143.271 722.062 147.833 723.938 151.25C727.396 157.625 733.896 160.812 743.438 160.812C749.562 160.812 754.771 159.062 759.062 155.562C761.229 153.812 763.042 151.667 764.5 149.125L764.375 159H775V92.0625H763.75V124.938C763.75 131.479 762.979 136.625 761.438 140.375C758.604 147.375 753.271 150.875 745.438 150.875C739.979 150.875 736.25 148.875 734.25 144.875C733.167 142.708 732.625 139.917 732.625 136.5Z" fill="white"/>
<path d="M803.312 92.0625H792.625V159H803.875V123.938C803.875 119.562 804.146 116.208 804.688 113.875C805.271 111.5 806.5 109.208 808.375 107C810.708 104.25 813.417 102.417 816.5 101.5C818.208 100.958 820.396 100.688 823.062 100.688C828.312 100.688 831.938 102.771 833.938 106.938C835.146 109.438 835.75 112.729 835.75 116.812V159H847.188V116.062C847.188 109.312 846.271 104.125 844.438 100.5C841.104 93.875 834.688 90.5625 825.188 90.5625C820.854 90.5625 816.917 91.4167 813.375 93.125C809.833 94.8333 806.479 97.6458 803.312 101.562V92.0625Z" fill="white"/>
<path fill-rule="evenodd" clip-rule="evenodd" d="M901.25 94.75C897.333 92.1667 892.75 90.875 887.5 90.875C879.75 90.875 873.125 94.0208 867.625 100.312C862.167 106.604 859.438 115.354 859.438 126.562C859.438 138.438 862.146 146.958 867.562 152.125C873.021 157.25 879.375 159.812 886.625 159.812C891.833 159.812 896.021 158.979 899.188 157.312C902.354 155.646 905.062 153.104 907.312 149.688C907.438 158.896 906.708 165.292 905.125 168.875C902.458 174.958 896.812 178 888.188 178C882.729 178 878.729 176.75 876.188 174.25C874.562 172.625 873.479 170.312 872.938 167.312H861.5C862.083 174.188 864.833 179.229 869.75 182.438C874.667 185.688 880.729 187.312 887.938 187.312C900.896 187.312 909.708 182.771 914.375 173.688C916.875 168.771 918.125 162.062 918.125 153.562V92.6875H907.75V101.125C905.542 98.3333 903.375 96.2083 901.25 94.75ZM902.625 106.812C906.042 110.812 907.75 116.958 907.75 125.25C907.75 130.75 906.833 135.562 905 139.688C901.708 146.979 896.021 150.625 887.938 150.625C882.771 150.625 878.646 148.667 875.562 144.75C872.521 140.792 871 135.042 871 127.5C871 121.083 871.771 115.896 873.312 111.938C876.229 104.521 881.646 100.812 889.562 100.812C894.854 100.812 899.208 102.812 902.625 106.812Z" fill="white"/>
<path fill-rule="evenodd" clip-rule="evenodd" d="M976.812 93.9375C972.354 91.6875 967.75 90.5625 963 90.5625C953.583 90.5625 945.958 93.9167 940.125 100.625C934.292 107.333 931.375 116.062 931.375 126.812C931.375 137.729 934.271 146.229 940.062 152.312C945.854 158.354 952.917 161.375 961.25 161.375C964.667 161.375 967.729 161.042 970.438 160.375C975.479 159.208 979.708 156.958 983.125 153.625C985.167 151.708 987 149.25 988.625 146.25C990.292 143.208 991.271 140.458 991.562 138H980.5C979.667 140.958 978.25 143.562 976.25 145.812C972.75 149.688 968.062 151.625 962.188 151.625C955.896 151.625 951.25 149.583 948.25 145.5C945.25 141.375 943.646 135.917 943.438 129.125H992.5C992.5 122.375 992.167 117.458 991.5 114.375C990.75 109.875 989.25 105.938 987 102.562C984.667 99.0208 981.271 96.1458 976.812 93.9375ZM977.75 108.5C979.417 111.417 980.479 115.312 980.938 120.188H943.75C943.958 114.438 945.812 109.708 949.312 106C952.812 102.25 957.146 100.375 962.312 100.375C969.521 100.375 974.667 103.083 977.75 108.5Z" fill="white"/>
<path d="M1017.38 92.0625H1006.69V159H1017.94V120.5C1017.94 115.75 1019.46 111.562 1022.5 107.938C1025.54 104.271 1029.9 102.438 1035.56 102.438C1036.23 102.438 1036.83 102.458 1037.38 102.5C1037.96 102.542 1038.58 102.625 1039.25 102.75V90.875C1038.04 90.75 1037.19 90.6667 1036.69 90.625C1036.19 90.5833 1035.83 90.5625 1035.62 90.5625C1031.17 90.5625 1027.23 92.1875 1023.81 95.4375C1020.4 98.6458 1018.25 101.375 1017.38 103.625V92.0625Z" fill="white"/>
</svg>
